# xmcd CD database file
#
# Track frame offsets:
#	150
#	92675
#	127665
#	169232
#	238656
#	271000
#	294266
#
# Disc length: 4428 seconds
#
# Revision: 0
# Processed by: cddbd v1.5.2PL0 Copyright (c) Steve Scherf et al.
# Submitted via: CDex 1.70beta2
#
DISCID=52114a07
DTITLE=Webster Lewis and PPSRBBGTC and Orchestra Baby - Webster Lewis in Norway CD1
DYEAR=1971
DGENRE=Jazz
TTITLE0=Do you believe
TTITLE1=Saturday night opening
TTITLE2=Mr.Knots
TTITLE3=Space Rock
TTITLE4=Qvote-Unqvote
TTITLE5=Dear Sister
TTITLE6=Itﾴs your thing
EXTD=YEAR: 1971
EXTT0=
EXTT1=
EXTT2=
EXTT3=
EXTT4=
EXTT5=
EXTT6=
PLAYORDER=
